<svg width="60" height="72" viewBox="0 0 60 72" fill="none" xmlns="http://www.w3.org/2000/svg">
<path fill-rule="evenodd" clip-rule="evenodd" d="M57.7814 18.6969C56.3023 15.0346 54.1158 11.7257 51.2219 8.77019C48.2637 5.87892 44.9518 3.6944 41.2862 2.21664C37.6206 0.738881 33.8585 0 30 0C26.1415 0 22.3794 0.738881 18.7138 2.21664C15.0482 3.6944 11.7524 5.87892 8.82637 8.77019C5.90032 11.6615 3.69775 14.9704 2.21865 18.6969C0.73955 22.4234 0 26.1821 0 29.9729C0 33.7636 0.73955 37.5223 2.21865 41.2488C3.69775 44.9753 5.88424 48.2842 8.77814 51.1755L28.4566 70.8362C28.9068 71.2859 29.4212 71.5108 30 71.5108C30.5788 71.5108 31.0932 71.2859 31.5434 70.8362L51.2219 51.1755C54.1158 48.22 56.3023 44.9111 57.7814 41.2488C59.2605 37.5865 60 33.8279 60 29.9729C60 26.1178 59.2605 22.3592 57.7814 18.6969Z" fill="#F4F4F4"/>
<path d="M30 38.8889H19.3333V31.7778H30V38.8889ZM46 31.7778V28.2222L44.2222 19.3333H15.7778L14 28.2222V31.7778H15.7778V42.4444H33.5556V31.7778H40.6667V42.4444H44.2222V31.7778H46ZM44.2222 14H15.7778V17.5556H44.2222V14Z" fill="#FFA715"/>
<path d="M23.4277 30V28.8809L26.1875 25.9219C26.5859 25.4648 26.8691 25.0801 27.0371 24.7676C27.2051 24.4512 27.2891 24.1582 27.2891 23.8887C27.2891 23.5293 27.1914 23.2363 26.9961 23.0098C26.8047 22.7793 26.5312 22.6641 26.1758 22.6641C25.7812 22.6641 25.4805 22.7988 25.2734 23.0684C25.0703 23.334 24.9688 23.6895 24.9688 24.1348H23.3047L23.293 24.0996C23.2734 23.3301 23.5254 22.6797 24.0488 22.1484C24.5762 21.6133 25.2852 21.3457 26.1758 21.3457C27.0547 21.3457 27.7461 21.5742 28.25 22.0312C28.7539 22.4883 29.0059 23.0977 29.0059 23.8594C29.0059 24.375 28.8633 24.8516 28.5781 25.2891C28.2969 25.7266 27.8281 26.2969 27.1719 27L25.6543 28.6582L25.666 28.6875H27.8809L27.9512 27.8438H29.252V30H23.4277ZM36.3113 26.8242H37.2781V27.9609H36.3113V28.7988L37.2195 28.9746V30H33.6922V28.9746L34.6062 28.7988V27.9609H31.1258L31.0437 27.123L34.5887 21.4688H36.3113V26.8242ZM32.6434 26.8242H34.6062V23.748L34.5711 23.7363L34.4305 23.9824L32.6434 26.8242Z" fill="white"/>
</svg>
