<svg width="60" height="72" viewBox="0 0 60 72" fill="none" xmlns="http://www.w3.org/2000/svg">
<path fill-rule="evenodd" clip-rule="evenodd" d="M57.7814 18.6969C56.3023 15.0346 54.1158 11.7257 51.2219 8.77019C48.2637 5.87892 44.9518 3.6944 41.2862 2.21664C37.6206 0.738881 33.8585 0 30 0C26.1415 0 22.3794 0.738881 18.7138 2.21664C15.0482 3.6944 11.7524 5.87892 8.82637 8.77019C5.90032 11.6615 3.69775 14.9704 2.21865 18.6969C0.73955 22.4234 0 26.1821 0 29.9729C0 33.7636 0.73955 37.5223 2.21865 41.2488C3.69775 44.9753 5.88424 48.2842 8.77814 51.1755L28.4566 70.8362C28.9068 71.2859 29.4212 71.5108 30 71.5108C30.5788 71.5108 31.0932 71.2859 31.5434 70.8362L51.2219 51.1755C54.1158 48.22 56.3023 44.9111 57.7814 41.2488C59.2605 37.5865 60 33.8279 60 29.9729C60 26.1178 59.2605 22.3592 57.7814 18.6969Z" fill="#F4F4F4"/>
<path d="M16.7778 19C15.7758 19 14.815 19.398 14.1065 20.1065C13.398 20.815 13 21.7758 13 22.7778V34.1111C13 35.113 13.398 36.0739 14.1065 36.7824C14.815 37.4909 15.7758 37.8889 16.7778 37.8889H20.5556C20.5556 39.3918 21.1526 40.8331 22.2153 41.8958C23.278 42.9585 24.7193 43.5556 26.2222 43.5556C27.7251 43.5556 29.1665 42.9585 30.2292 41.8958C31.2919 40.8331 31.8889 39.3918 31.8889 37.8889H47V34.1111H43.2222V22.7778C43.2222 21.7758 42.8242 20.815 42.1157 20.1065C41.4073 19.398 40.4464 19 39.4444 19H16.7778ZM16.7778 22.7778H26.2222V28.4444H16.7778V22.7778ZM31.8889 22.7778H39.4444V28.4444H31.8889V22.7778ZM26.2222 36C26.7232 36 27.2036 36.199 27.5579 36.5532C27.9121 36.9075 28.1111 37.3879 28.1111 37.8889C28.1111 38.3899 27.9121 38.8703 27.5579 39.2245C27.2036 39.5788 26.7232 39.7778 26.2222 39.7778C25.7213 39.7778 25.2408 39.5788 24.8866 39.2245C24.5323 38.8703 24.3333 38.3899 24.3333 37.8889C24.3333 37.3879 24.5323 36.9075 24.8866 36.5532C25.2408 36.199 25.7213 36 26.2222 36V36Z" fill="#FFA715"/>
</svg>
