<svg width="60" height="72" viewBox="0 0 60 72" fill="none" xmlns="http://www.w3.org/2000/svg">
<path fill-rule="evenodd" clip-rule="evenodd" d="M57.7814 18.6969C56.3023 15.0346 54.1158 11.7257 51.2219 8.77019C48.2637 5.87892 44.9518 3.6944 41.2862 2.21664C37.6206 0.738881 33.8585 0 30 0C26.1415 0 22.3794 0.738881 18.7138 2.21664C15.0482 3.6944 11.7524 5.87892 8.82637 8.77019C5.90032 11.6615 3.69775 14.9704 2.21865 18.6969C0.73955 22.4234 0 26.1821 0 29.9729C0 33.7636 0.73955 37.5223 2.21865 41.2488C3.69775 44.9753 5.88424 48.2842 8.77814 51.1755L28.4566 70.8362C28.9068 71.2859 29.4212 71.5108 30 71.5108C30.5788 71.5108 31.0932 71.2859 31.5434 70.8362L51.2219 51.1755C54.1158 48.22 56.3023 44.9111 57.7814 41.2488C59.2605 37.5865 60 33.8279 60 29.9729C60 26.1178 59.2605 22.3592 57.7814 18.6969Z" fill="#F4F4F4"/>
<path d="M36.6667 19H20L11.6667 29V34H15C15 35.3261 15.5268 36.5979 16.4645 37.5355C17.4022 38.4732 18.6739 39 20 39C21.3261 39 22.5979 38.4732 23.5355 37.5355C24.4732 36.5979 25 35.3261 25 34H35C35 35.3261 35.5268 36.5979 36.4645 37.5355C37.4022 38.4732 38.6739 39 40 39C41.3261 39 42.5979 38.4732 43.5355 37.5355C44.4732 36.5979 45 35.3261 45 34H48.3333V29C48.3333 27.15 46.85 25.6667 45 25.6667H41.6667L36.6667 19ZM20.8333 21.5H27.5V25.6667H17.5L20.8333 21.5ZM30 21.5H35.8333L39.1 25.6667H30V21.5ZM20 31.5C20.663 31.5 21.2989 31.7634 21.7678 32.2322C22.2366 32.7011 22.5 33.337 22.5 34C22.5 34.663 22.2366 35.2989 21.7678 35.7678C21.2989 36.2366 20.663 36.5 20 36.5C19.337 36.5 18.7011 36.2366 18.2322 35.7678C17.7634 35.2989 17.5 34.663 17.5 34C17.5 33.337 17.7634 32.7011 18.2322 32.2322C18.7011 31.7634 19.337 31.5 20 31.5V31.5ZM40 31.5C40.663 31.5 41.2989 31.7634 41.7678 32.2322C42.2366 32.7011 42.5 33.337 42.5 34C42.5 34.663 42.2366 35.2989 41.7678 35.7678C41.2989 36.2366 40.663 36.5 40 36.5C39.337 36.5 38.7011 36.2366 38.2322 35.7678C37.7634 35.2989 37.5 34.663 37.5 34C37.5 33.337 37.7634 32.7011 38.2322 32.2322C38.7011 31.7634 39.337 31.5 40 31.5Z" fill="#FFA715"/>
</svg>
