<svg width="60" height="72" viewBox="0 0 60 72" fill="none" xmlns="http://www.w3.org/2000/svg">
<path fill-rule="evenodd" clip-rule="evenodd" d="M57.7814 18.6969C56.3023 15.0346 54.1158 11.7257 51.2219 8.77019C48.2637 5.87892 44.9518 3.6944 41.2862 2.21664C37.6206 0.738881 33.8585 0 30 0C26.1415 0 22.3794 0.738881 18.7138 2.21664C15.0482 3.6944 11.7524 5.87892 8.82637 8.77019C5.90032 11.6615 3.69775 14.9704 2.21865 18.6969C0.73955 22.4234 0 26.1821 0 29.9729C0 33.7636 0.73955 37.5223 2.21865 41.2488C3.69775 44.9753 5.88424 48.2842 8.77814 51.1755L28.4566 70.8362C28.9068 71.2859 29.4212 71.5108 30 71.5108C30.5788 71.5108 31.0932 71.2859 31.5434 70.8362L51.2219 51.1755C54.1158 48.22 56.3023 44.9111 57.7814 41.2488C59.2605 37.5865 60 33.8279 60 29.9729C60 26.1178 59.2605 22.3592 57.7814 18.6969Z" fill="#F4F4F4"/>
<path d="M30 36.1C29.1159 36.1 28.2681 35.7418 27.643 35.1042C27.0179 34.4665 26.6667 33.6017 26.6667 32.7C26.6667 31.7983 27.0179 30.9335 27.643 30.2958C28.2681 29.6582 29.1159 29.3 30 29.3C30.8841 29.3 31.7319 29.6582 32.357 30.2958C32.9821 30.9335 33.3333 31.7983 33.3333 32.7C33.3333 33.6017 32.9821 34.4665 32.357 35.1042C31.7319 35.7418 30.8841 36.1 30 36.1ZM21.6667 22.5C21.6667 20.613 23.15 19.1 25 19.1C25.8841 19.1 26.7319 19.4582 27.357 20.0958C27.9821 20.7335 28.3333 21.5983 28.3333 22.5C28.3333 23.4017 27.9821 24.2665 27.357 24.9042C26.7319 25.5418 25.8841 25.9 25 25.9C24.1159 25.9 23.2681 25.5418 22.643 24.9042C22.0179 24.2665 21.6667 23.4017 21.6667 22.5ZM30 14C24.05 14 18.7167 16.618 15 20.8L30 48L45 20.8C41.3 16.618 35.95 14 30 14Z" fill="#FFA715"/>
</svg>
