<svg width="60" height="72" viewBox="0 0 60 72" fill="none" xmlns="http://www.w3.org/2000/svg">
<path fill-rule="evenodd" clip-rule="evenodd" d="M57.7814 18.6969C56.3023 15.0346 54.1158 11.7257 51.2219 8.77019C48.2637 5.87892 44.9518 3.6944 41.2862 2.21664C37.6206 0.738881 33.8585 0 30 0C26.1415 0 22.3794 0.738881 18.7138 2.21664C15.0482 3.6944 11.7524 5.87892 8.82637 8.77019C5.90032 11.6615 3.69775 14.9704 2.21865 18.6969C0.73955 22.4234 0 26.1821 0 29.9729C0 33.7636 0.73955 37.5223 2.21865 41.2488C3.69775 44.9753 5.88424 48.2842 8.77814 51.1755L28.4566 70.8362C28.9068 71.2859 29.4212 71.5108 30 71.5108C30.5788 71.5108 31.0932 71.2859 31.5434 70.8362L51.2219 51.1755C54.1158 48.22 56.3023 44.9111 57.7814 41.2488C59.2605 37.5865 60 33.8279 60 29.9729C60 26.1178 59.2605 22.3592 57.7814 18.6969Z" fill="#F4F4F4"/>
<path d="M40.4 37.4C38.846 37.4 37.6 38.646 37.6 40.2C37.6 40.9426 37.895 41.6548 38.4201 42.1799C38.9452 42.705 39.6574 43 40.4 43C41.1426 43 41.8548 42.705 42.3799 42.1799C42.905 41.6548 43.2 40.9426 43.2 40.2C43.2 39.4574 42.905 38.7452 42.3799 38.2201C41.8548 37.695 41.1426 37.4 40.4 37.4ZM18 15V17.8H20.8L25.84 28.426L23.936 31.856C23.726 32.248 23.6 32.71 23.6 33.2C23.6 33.9426 23.895 34.6548 24.4201 35.1799C24.9452 35.705 25.6574 36 26.4 36H43.2V33.2H26.988C26.8952 33.2 26.8062 33.1631 26.7405 33.0975C26.6749 33.0318 26.638 32.9428 26.638 32.85C26.638 32.78 26.652 32.724 26.68 32.682L27.94 30.4H38.37C39.42 30.4 40.344 29.812 40.82 28.958L45.832 19.9C45.93 19.676 46 19.438 46 19.2C46 18.8287 45.8525 18.4726 45.59 18.2101C45.3274 17.9475 44.9713 17.8 44.6 17.8H23.894L22.578 15H18ZM26.4 37.4C24.846 37.4 23.6 38.646 23.6 40.2C23.6 40.9426 23.895 41.6548 24.4201 42.1799C24.9452 42.705 25.6574 43 26.4 43C27.1426 43 27.8548 42.705 28.3799 42.1799C28.905 41.6548 29.2 40.9426 29.2 40.2C29.2 39.4574 28.905 38.7452 28.3799 38.2201C27.8548 37.695 27.1426 37.4 26.4 37.4Z" fill="#FFA715"/>
</svg>
