<svg width="60" height="72" viewBox="0 0 60 72" fill="none" xmlns="http://www.w3.org/2000/svg">
<path fill-rule="evenodd" clip-rule="evenodd" d="M57.7814 18.6969C56.3023 15.0346 54.1158 11.7257 51.2219 8.77019C48.2637 5.87892 44.9518 3.6944 41.2862 2.21664C37.6206 0.738881 33.8585 0 30 0C26.1415 0 22.3794 0.738881 18.7138 2.21664C15.0482 3.6944 11.7524 5.87892 8.82637 8.77019C5.90032 11.6615 3.69775 14.9704 2.21865 18.6969C0.73955 22.4234 0 26.1821 0 29.9729C0 33.7636 0.73955 37.5223 2.21865 41.2488C3.69775 44.9753 5.88424 48.2842 8.77814 51.1755L28.4566 70.8362C28.9068 71.2859 29.4212 71.5108 30 71.5108C30.5788 71.5108 31.0932 71.2859 31.5434 70.8362L51.2219 51.1755C54.1158 48.22 56.3023 44.9111 57.7814 41.2488C59.2605 37.5865 60 33.8279 60 29.9729C60 26.1178 59.2605 22.3592 57.7814 18.6969Z" fill="#F4F4F4"/>
<path d="M39.5455 23.7273H28.6364V33.2727H17.7273V21H15V41.4545H17.7273V37.3636H42.2727V41.4545H45V29.1818C45 27.7352 44.4253 26.3478 43.4024 25.3249C42.3795 24.3019 40.9921 23.7273 39.5455 23.7273ZM23.1818 31.9091C24.2668 31.9091 25.3073 31.4781 26.0745 30.7109C26.8417 29.9437 27.2727 28.9032 27.2727 27.8182C27.2727 26.7332 26.8417 25.6927 26.0745 24.9255C25.3073 24.1583 24.2668 23.7273 23.1818 23.7273C22.0968 23.7273 21.0563 24.1583 20.2891 24.9255C19.5219 25.6927 19.0909 26.7332 19.0909 27.8182C19.0909 28.9032 19.5219 29.9437 20.2891 30.7109C21.0563 31.4781 22.0968 31.9091 23.1818 31.9091V31.9091Z" fill="#FFA715"/>
</svg>
